<svg id="Layer_1" data-name="Layer 1" xmlns="http://www.w3.org/2000/svg" viewBox="0 0 546 437.09"><defs><style>.cls-1{fill:#fff;stroke:#3b54a5;stroke-width:3px;}.cls-1,.cls-11,.cls-16,.cls-6,.cls-8,.cls-9{stroke-miterlimit:10;}.cls-18,.cls-19,.cls-2{font-size:14px;}.cls-17,.cls-2,.cls-20{fill:#231f20;}.cls-2,.cls-25{font-family:Calibri, Calibri;}.cls-3{letter-spacing:-0.02em;}.cls-37,.cls-4{letter-spacing:-0.01em;}.cls-5{letter-spacing:-0.01em;}.cls-11,.cls-15,.cls-16,.cls-6,.cls-9{fill:none;}.cls-16,.cls-6,.cls-8{stroke:#231f20;}.cls-6{stroke-dasharray:4;opacity:0.8;}.cls-7{letter-spacing:-0.02em;}.cls-8{fill:#f15a29;}.cls-9{stroke:#f7941d;}.cls-11,.cls-9{stroke-width:0.75px;}.cls-10,.cls-19,.cls-42{fill:#f7941d;}.cls-11{stroke:#00a651;}.cls-12,.cls-18,.cls-36,.cls-37{fill:#00a651;}.cls-13{letter-spacing:-0.01em;}.cls-14{letter-spacing:-0.02em;}.cls-16{stroke-width:1.5px;}.cls-18,.cls-19{font-family:Calibri-Italic, Calibri;font-style:italic;}.cls-20{font-size:12px;font-family:Calibri-Bold, Calibri;}.cls-21{font-weight:700;}.cls-22{letter-spacing:-0.02em;}.cls-23{letter-spacing:-0.02em;}.cls-24{letter-spacing:-0.01em;}.cls-26{letter-spacing:-0.1em;}.cls-27{letter-spacing:1.51em;}.cls-28{letter-spacing:0.93em;}.cls-29{letter-spacing:2.77em;}.cls-30{letter-spacing:1.16em;}.cls-31{letter-spacing:-0.09em;}.cls-32,.cls-36{letter-spacing:-0.02em;}.cls-33{letter-spacing:2.74em;}.cls-34{letter-spacing:-0.01em;}.cls-35{letter-spacing:2.29em;}.cls-38{letter-spacing:1.43em;}.cls-39{letter-spacing:0.42em;}.cls-40{letter-spacing:-0.04em;}.cls-41{letter-spacing:0.89em;}.cls-42{letter-spacing:0em;}.cls-43{letter-spacing:2.04em;}</style></defs><title>slow_waves</title><path class="cls-1" d="M248.92,175.36c11.32,3.27,53.83-6.47,69.33,6,12.19,9.82,21.21,21.62,33.08,48.47,11,24.81,16.73,46.25,27.8,88.12,0,0,6.72,25.42,22.5,65,8.19,20.54,11.91,27.19,17.2,27.54,6.63.43,16.12-9,34.41-59.49,24.93-68.78,34.4-126.06,35.74-134.38C494,185.08,498.53,160.71,507.5,112c5.67-30.77,10-53.13,22.5-55.07,11.82-1.84,26.58,15.33,37.06,27.54,4.55,5.29,8.59,10.74,19.85,29.74,14,23.65,20.24,46.53,33.09,66.48" transform="translate(-190 -36.37)"/><text class="cls-2" transform="translate(188.54 393.38)">Ne<tspan class="cls-3" x="16" y="0">g</tspan><tspan class="cls-4" x="22.33" y="0">a</tspan><tspan x="28.91" y="0">ti</tspan><tspan class="cls-5" x="36.71" y="0">v</tspan><tspan x="42.9" y="0">e peak</tspan></text><line class="cls-6" x1="59.01" y1="145.38" x2="436.01" y2="144.29"/><text class="cls-2" transform="translate(306.35 11.42)"><tspan class="cls-7">P</tspan><tspan x="6.95" y="0">ositi</tspan><tspan class="cls-5" x="30.82" y="0">v</tspan><tspan x="37.01" y="0">e peak</tspan></text><circle class="cls-8" cx="128.25" cy="145" r="6"/><line class="cls-9" x1="228.84" y1="367.11" x2="229" y2="145.63"/><path class="cls-10" d="M418.83,408a22.92,22.92,0,0,1,3.58-6.41l-3.57,1.29-3.57-1.29A22.38,22.38,0,0,1,418.83,408Z" transform="translate(-190 -36.37)"/><circle class="cls-8" cx="305" cy="144.66" r="6"/><circle class="cls-8" cx="430" cy="144.29" r="6"/><line class="cls-11" x1="138.78" y1="135.14" x2="295.82" y2="135.14"/><path class="cls-12" d="M324.25,171.51a22.65,22.65,0,0,1,6.41,3.57l-1.29-3.57,1.29-3.57A22.65,22.65,0,0,1,324.25,171.51Z" transform="translate(-190 -36.37)"/><path class="cls-12" d="M490.35,171.51a22.51,22.51,0,0,0-6.41,3.57l1.29-3.57-1.29-3.57A22.51,22.51,0,0,0,490.35,171.51Z" transform="translate(-190 -36.37)"/><line class="cls-11" x1="415.47" y1="135.14" x2="316.88" y2="135.14"/><path class="cls-12" d="M610,171.51a22.65,22.65,0,0,1-6.41-3.57l1.29,3.57-1.29,3.57A22.65,22.65,0,0,1,610,171.51Z" transform="translate(-190 -36.37)"/><path class="cls-12" d="M502.36,171.51a22.65,22.65,0,0,0,6.41-3.57l-1.29,3.57,1.29,3.57A22.65,22.65,0,0,0,502.36,171.51Z" transform="translate(-190 -36.37)"/><text class="cls-2" transform="translate(101.5 166.13)">S<tspan class="cls-13" x="6.43" y="0">t</tspan><tspan x="10.95" y="0">art</tspan></text><text class="cls-2" transform="translate(430 166.13)">End</text><text class="cls-2" transform="translate(306.35 166.13)">Mid-c<tspan class="cls-14" x="32.74" y="0">r</tspan><tspan x="37.4" y="0">ossing</tspan></text><text class="cls-2" transform="translate(42 150.29)">0</text><line class="cls-15" x1="55" y1="20.39" x2="54" y2="406.21"/><line class="cls-16" x1="59.18" y1="11.42" x2="58.66" y2="415.63"/><text class="cls-2" transform="translate(0 413.21)">- 100 μV</text><text class="cls-2" transform="translate(17 22.63)">30 μV</text><line class="cls-16" x1="58.57" y1="415.71" x2="441.37" y2="413.76"/><path class="cls-17" d="M640.43,450.08c-4.25,1.61-9.53,4.33-12.79,7.2l2.55-7.14L627.57,443A45.06,45.06,0,0,0,640.43,450.08Z" transform="translate(-190 -36.37)"/><text class="cls-2" transform="translate(417 432.71)">~1 sec</text><path class="cls-15" d="M400.83,162.07a1.74,1.74,0,0,0,2,1.7c1.1,0,1.84-.51,1.84-1.52,0-.76-.37-1.23-1.72-1.75-1.55-.58-2.1-1.17-2.1-2.14,0-1.22.86-2.32,2.73-2.32s2.66,1.06,2.66,2.31h-1a1.46,1.46,0,0,0-1.69-1.45c-1.05,0-1.59.61-1.59,1.34,0,.58.27.94,1.52,1.41,1.72.64,2.32,1.37,2.32,2.46,0,1.3-.83,2.51-3,2.51-1.92,0-2.88-1.06-2.92-2.55Z" transform="translate(-190 -36.37)"/><path class="cls-15" d="M407.2,158.42h1l.38-1.76h1l-.38,1.76h1.3l-.18.81H409l-.77,3.69c-.12.55-.09.82.44.82a3.17,3.17,0,0,0,.6-.05l-.18.78a2.52,2.52,0,0,1-.85.11c-.95,0-1.26-.47-1.05-1.48l.82-3.87h-1Z" transform="translate(-190 -36.37)"/><path class="cls-15" d="M415.13,163c-.1.51-.25,1.26-.28,1.51h-1c0-.22.09-.6.16-.93a2.17,2.17,0,0,1-2.06,1.05,1.5,1.5,0,0,1-1.67-1.53c0-1.73,1.63-2.11,2.84-2.23.63-.06,1.17-.06,1.48-.07l.08-.41c.11-.57.07-1.31-1.09-1.31a1.37,1.37,0,0,0-1.49,1h-1a2.32,2.32,0,0,1,2.59-1.77c1.39,0,2.29.63,2,2.09Zm-.66-1.46c-.33,0-.74,0-1.25.06-1,.11-1.87.37-1.87,1.35,0,.46.31.85,1,.85,1.33,0,1.85-1,2.11-2.16Z" transform="translate(-190 -36.37)"/><path class="cls-15" d="M417.54,160.22c.12-.6.25-1.24.35-1.8h1c0,.15-.11.76-.22,1.28a2.38,2.38,0,0,1,2.13-1.4l-.22,1a2.65,2.65,0,0,0-2.32,2.32l-.6,2.85h-1Z" transform="translate(-190 -36.37)"/><path class="cls-15" d="M421.52,158.42h1l.38-1.76h1l-.38,1.76h1.3l-.18.81h-1.3l-.77,3.69c-.12.55-.09.82.44.82a3.17,3.17,0,0,0,.6-.05l-.18.78a2.52,2.52,0,0,1-.85.11c-.95,0-1.26-.47-1-1.48l.81-3.87h-1Z" transform="translate(-190 -36.37)"/><text class="cls-18" transform="translate(214.5 128.13)">A</text><text class="cls-18" transform="translate(364 128.13)">B</text><text class="cls-19" transform="translate(235.5 246.12)">D</text><line class="cls-9" x1="341.17" y1="144.29" x2="341.17" y2="27.16"/><path class="cls-10" d="M531.17,59a22.87,22.87,0,0,0,3.56,6.41l-3.56-1.29-3.57,1.29A22.65,22.65,0,0,0,531.17,59Z" transform="translate(-190 -36.37)"/><text class="cls-19" transform="translate(347.33 85.68)">E</text><text class="cls-2" transform="translate(59.02 432.71)">0</text><text class="cls-20" transform="translate(333.9 221.77)"><tspan class="cls-21"><tspan class="cls-22">P</tspan><tspan x="6.15" y="0">a</tspan><tspan class="cls-23" x="12.08" y="0">r</tspan><tspan x="16.08" y="0">am</tspan><tspan class="cls-24" x="31.76" y="0">e</tspan><tspan class="cls-13" x="37.72" y="0">t</tspan><tspan x="41.74" y="0">e</tspan><tspan class="cls-13" x="47.78" y="0">r</tspan><tspan x="51.9" y="0">s</tspan></tspan><tspan class="cls-25"><tspan x="0" y="14">Du</tspan><tspan class="cls-26" x="13.69" y="14">r</tspan><tspan x="16.66" y="14">. ne</tspan><tspan class="cls-3" x="34.68" y="14">g</tspan><tspan class="cls-4" x="40.11" y="14">a</tspan><tspan x="45.74" y="14">ti</tspan><tspan class="cls-5" x="52.43" y="14">v</tspan><tspan x="57.73" y="14">e phase (sec)</tspan><tspan class="cls-27" x="121.17" y="14">	</tspan><tspan class="cls-12" x="142" y="14">A</tspan><tspan x="0" y="28">Du</tspan><tspan class="cls-26" x="13.69" y="28">r</tspan><tspan x="16.66" y="28">. positi</tspan><tspan class="cls-5" x="49.17" y="28">v</tspan><tspan x="54.47" y="28">e phase</tspan><tspan class="cls-28" x="92.18" y="28">	</tspan><tspan class="cls-29" x="106" y="28">	</tspan><tspan class="cls-12" x="142" y="28">B</tspan><tspan x="0" y="42">Du</tspan><tspan class="cls-26" x="13.69" y="42">r</tspan><tspan x="16.66" y="42">. ne</tspan><tspan class="cls-3" x="34.68" y="42">g</tspan><tspan class="cls-4" x="40.11" y="42">a</tspan><tspan x="45.74" y="42">ti</tspan><tspan class="cls-5" x="52.43" y="42">v</tspan><tspan x="57.73" y="42">e </tspan><tspan class="cls-5" x="66.42" y="42">t</tspan><tspan x="70.32" y="42">o mid-Xing </tspan><tspan class="cls-30" x="125.33" y="42">	</tspan><tspan class="cls-12" x="142" y="42">C</tspan><tspan class="cls-31" x="0" y="56">T</tspan><tspan x="4.78" y="56">o</tspan><tspan class="cls-13" x="11.11" y="56">t</tspan><tspan x="14.98" y="56">al du</tspan><tspan class="cls-32" x="38.81" y="56">r</tspan><tspan class="cls-4" x="42.74" y="56">a</tspan><tspan x="48.38" y="56">tion </tspan><tspan class="cls-33" x="70.41" y="56">	</tspan><tspan class="cls-29" x="106" y="56">	</tspan><tspan class="cls-12" x="142" y="56">A + B</tspan><tspan x="0" y="70">F</tspan><tspan class="cls-34" x="5.51" y="70">r</tspan><tspan x="9.54" y="70">equency (Hz) </tspan><tspan class="cls-35" x="75.82" y="70">	</tspan><tspan class="cls-29" x="106" y="70">	</tspan><tspan class="cls-12" x="142" y="70">1 / Du</tspan><tspan class="cls-36" x="171.83" y="70">r</tspan><tspan class="cls-37" x="175.77" y="70">a</tspan><tspan class="cls-12" x="181.4" y="70">tion</tspan><tspan x="0" y="84">Amp. ne</tspan><tspan class="cls-3" x="40.85" y="84">g</tspan><tspan class="cls-4" x="46.28" y="84">a</tspan><tspan x="51.91" y="84">ti</tspan><tspan class="cls-5" x="58.6" y="84">v</tspan><tspan x="63.9" y="84">e peak (μV) </tspan><tspan class="cls-38" x="122.17" y="84">	</tspan><tspan class="cls-10" x="142" y="84">D</tspan><tspan x="0" y="98">Amp. positi</tspan><tspan class="cls-5" x="55.34" y="98">v</tspan><tspan x="60.64" y="98" xml:space="preserve">e peak  </tspan><tspan class="cls-39" x="98.23" y="98">	</tspan><tspan class="cls-29" x="106" y="98">	</tspan><tspan class="cls-10" x="142" y="98">E</tspan><tspan x="0" y="112">Amp. pea</tspan><tspan class="cls-40" x="46.6" y="112">k</tspan><tspan x="51.6" y="112">-</tspan><tspan class="cls-5" x="55.28" y="112">t</tspan><tspan x="59.18" y="112">o-peak</tspan><tspan class="cls-41" x="92.66" y="112">	</tspan><tspan class="cls-29" x="106" y="112">	</tspan><tspan class="cls-10" x="142" y="112">a</tspan><tspan class="cls-42" x="147.75" y="112">b</tspan><tspan class="cls-10" x="153.99" y="112">s(D) + E</tspan><tspan x="0" y="126">Slope (μV / sec) </tspan><tspan class="cls-43" x="78.78" y="126">	</tspan><tspan class="cls-29" x="106" y="126">	</tspan><tspan class="cls-10" x="142" y="126">D</tspan><tspan x="149.38" y="126"> </tspan><tspan class="cls-10" x="152.1" y="126">/</tspan><tspan x="156.73" y="126"> </tspan><tspan class="cls-12" x="159.44" y="126">C</tspan></tspan></text><line class="cls-11" x1="237.53" y1="190.63" x2="286.47" y2="190.63"/><path class="cls-12" d="M423,227a22.65,22.65,0,0,1,6.41,3.57L428.12,227l1.29-3.57A22.65,22.65,0,0,1,423,227Z" transform="translate(-190 -36.37)"/><path class="cls-12" d="M481,227a22.65,22.65,0,0,0-6.41,3.57l1.29-3.57-1.29-3.57A22.65,22.65,0,0,0,481,227Z" transform="translate(-190 -36.37)"/><text class="cls-18" transform="translate(259.5 185.13)">C</text></svg>